<svg width="113" height="85" viewBox="0 0 113 85" fill="none" xmlns="http://www.w3.org/2000/svg">
<g clip-path="url(#clip0_3770_9958)">
<g clip-path="url(#clip1_3770_9958)">
<path d="M-1.94827 -0.96582H114.948V85.966H-1.94827V-0.96582Z" fill="#012169"/>
<path d="M11.7505 -0.96582L56.3173 31.8147L100.702 -0.96582H114.948V10.2629L71.1121 42.6812L114.948 74.9184V85.966H100.336L56.5 53.5477L12.8464 85.966H-1.94827V75.0995L41.7053 42.8623L-1.94827 10.6251V-0.96582H11.7505Z" fill="white"/>
<path d="M75.4957 49.9255L114.948 78.7217V85.966L65.4499 49.9255H75.4957ZM41.8879 53.5477L42.9838 59.8865L7.91487 85.966H-1.94827L41.8879 53.5477ZM114.948 -0.96582V-0.422496L69.4682 33.6258L69.8335 25.6571L105.816 -0.96582H114.948ZM-1.94827 -0.96582L41.7053 30.9092H30.7462L-1.94827 6.64071V-0.96582Z" fill="#C8102E"/>
<path d="M42.0706 -0.96582V85.966H71.2947V-0.96582H42.0706ZM-1.94827 28.0115V56.9887H114.948V28.0115H-1.94827Z" fill="white"/>
<path d="M-1.94827 33.988V51.3744H114.948V33.988H-1.94827ZM47.9154 -0.96582V85.966H65.4499V-0.96582H47.9154Z" fill="#C8102E"/>
</g>
</g>
<defs>
<clipPath id="clip0_3770_9958">
<rect width="113" height="85" fill="white"/>
</clipPath>
<clipPath id="clip1_3770_9958">
<rect width="116.897" height="86.9318" fill="white" transform="translate(-1.94827 -0.96582)"/>
</clipPath>
</defs>
</svg>
