<svg width="117" height="87" viewBox="0 0 117 87" fill="none" xmlns="http://www.w3.org/2000/svg">
<g clip-path="url(#clip0_3770_9946)">
<path d="M0 0H116.897V86.9318H0V0Z" fill="#DA2032"/>
<path d="M38.9594 0H77.9371V86.9318H38.9594V0Z" fill="#0066B3"/>
<path d="M19.4888 40.1698C23.5238 40.1698 26.7949 36.9264 26.7949 32.9255C26.7949 28.9245 23.5238 25.6812 19.4888 25.6812C15.4538 25.6812 12.1828 28.9245 12.1828 32.9255C12.1828 36.9264 15.4538 40.1698 19.4888 40.1698Z" fill="#FFD900"/>
<path d="M19.4888 37.5255C23.887 37.5255 27.4524 33.9902 27.4524 29.6292C27.4524 25.2682 23.887 21.7329 19.4888 21.7329C15.0907 21.7329 11.5253 25.2682 11.5253 29.6292C11.5253 33.9902 15.0907 37.5255 19.4888 37.5255Z" fill="#DA2032"/>
<path d="M19.4888 36.2216C22.4243 36.2216 24.804 33.8621 24.804 30.9514C24.804 28.0407 22.4243 25.6812 19.4888 25.6812C16.5534 25.6812 14.1737 28.0407 14.1737 30.9514C14.1737 33.8621 16.5534 36.2216 19.4888 36.2216Z" fill="#FFD900"/>
<path d="M20.0368 13.8364C19.7671 13.9534 19.5356 14.1423 19.3679 14.3822C19.2002 14.622 19.1029 14.9033 19.087 15.1947C19.0505 15.6475 19.2514 16.1546 19.2697 16.5893C19.2697 17.3499 18.4843 17.6035 18.4843 18.672C18.4843 19.0342 18.8313 19.4508 18.8313 20.4106C18.7582 20.9177 18.466 21.0445 18.1555 21.0807C18.0676 21.0808 17.9806 21.0633 17.8996 21.0294C17.8186 20.9955 17.7453 20.9459 17.684 20.8834C17.6227 20.8209 17.5746 20.7469 17.5427 20.6657C17.5107 20.5845 17.4955 20.4978 17.4979 20.4106C17.4975 20.242 17.5629 20.0797 17.6806 19.9579C17.7036 19.9381 17.7281 19.92 17.7537 19.9035C17.8998 19.7405 18.119 19.6862 18.119 19.2878C18.119 19.0886 17.9728 18.8893 17.845 18.5271C17.7171 18.1649 17.8084 17.5854 18.1007 17.2413C17.6258 17.4224 17.3518 17.857 17.1874 18.2555C17.0413 18.7445 17.1874 19.0161 16.9683 19.4327C16.8404 19.6862 16.6943 19.7949 16.5482 20.0122C16.3655 20.2658 16.1829 20.8091 16.1829 21.0807C16.245 21.9104 16.6213 22.686 17.2361 23.2521C17.851 23.8182 18.659 24.1327 19.498 24.1327C20.337 24.1327 21.145 23.8182 21.7598 23.2521C22.3747 22.686 22.7509 21.9104 22.8131 21.0807C22.8131 20.8091 22.6122 20.2658 22.4478 20.0122C22.2834 19.7949 22.1373 19.6862 22.0094 19.4327C21.7902 19.0161 21.9364 18.7445 21.772 18.2555C21.6259 17.857 21.3519 17.4224 20.877 17.2413C21.1692 17.6035 21.2423 18.183 21.1327 18.5271C21.0048 18.8893 20.877 19.0704 20.877 19.2878C20.877 19.6862 21.0779 19.7405 21.2423 19.9035C21.2616 19.9206 21.2799 19.9387 21.2971 19.9579C21.4147 20.0797 21.4802 20.242 21.4797 20.4106C21.4822 20.4978 21.467 20.5845 21.435 20.6657C21.4031 20.7469 21.355 20.8209 21.2937 20.8834C21.2324 20.9459 21.1591 20.9955 21.0781 21.0294C20.9971 21.0633 20.9101 21.0808 20.8222 21.0807C20.4569 21.0264 20.1829 20.8634 20.1464 20.4106C20.1464 19.1429 20.6943 19.0704 20.6943 18.1287C20.6943 16.7885 19.4888 16.1546 19.4888 15.1766C19.4888 14.8506 19.5619 14.2711 20.0368 13.8364ZM4.87677 41.4735H11.507V73.0768H4.87677V41.4735ZM27.4524 41.4735H34.1009V73.0768H27.4524V41.4735ZM12.8403 41.4735H26.1191L19.4888 45.4217L12.8403 41.4735ZM12.8403 46.7256H26.1191V49.3698H12.8403V46.7256ZM12.8403 65.1805H26.1191V67.8247H12.8403V65.1805ZM12.8403 69.1287H26.1191L19.4888 73.0768L12.8403 69.1287Z" fill="#FFD900"/>
<path d="M19.4889 63.8951C23.1607 63.8951 26.1373 60.9436 26.1373 57.3028C26.1373 53.6619 23.1607 50.7104 19.4889 50.7104C15.817 50.7104 12.8404 53.6619 12.8404 57.3028C12.8404 60.9436 15.817 63.8951 19.4889 63.8951Z" fill="#FFD900"/>
<path d="M19.4804 55.1177C20.2141 55.1177 20.8088 54.528 20.8088 53.8005C20.8088 53.0731 20.2141 52.4834 19.4804 52.4834C18.7468 52.4834 18.1521 53.0731 18.1521 53.8005C18.1521 54.528 18.7468 55.1177 19.4804 55.1177Z" fill="#DA2032"/>
<path d="M19.4804 62.0986C20.2141 62.0986 20.8088 61.5089 20.8088 60.7815C20.8088 60.0541 20.2141 59.4644 19.4804 59.4644C18.7468 59.4644 18.1521 60.0541 18.1521 60.7815C18.1521 61.5089 18.7468 62.0986 19.4804 62.0986Z" fill="#DA2032"/>
<path d="M19.4804 49.915C20.5197 49.915 21.5165 50.3244 22.2514 51.0531C22.9863 51.7818 23.3991 52.7701 23.3991 53.8006C23.3991 54.8311 22.9863 55.8194 22.2514 56.5481C21.5165 57.2768 20.5197 57.6862 19.4804 57.6862C18.6525 57.6862 17.8585 58.0123 17.2731 58.5928C16.6877 59.1733 16.3588 59.9606 16.3588 60.7815C16.3588 61.6024 16.6877 62.3897 17.2731 62.9702C17.8585 63.5507 18.6525 63.8768 19.4804 63.8768V64.6671C18.4411 64.6671 17.4444 64.2577 16.7095 63.529C15.9746 62.8003 15.5618 61.812 15.5618 60.7815C15.5618 59.751 15.9746 58.7626 16.7095 58.034C17.4444 57.3053 18.4411 56.8959 19.4804 56.8959C20.3084 56.8959 21.1024 56.5698 21.6878 55.9893C22.2732 55.4088 22.6021 54.6215 22.6021 53.8006C22.6021 52.9797 22.2732 52.1924 21.6878 51.6119C21.1024 51.0314 20.3084 50.7053 19.4804 50.7053V49.915Z" fill="#DA2032"/>
</g>
<defs>
<clipPath id="clip0_3770_9946">
<rect width="116.897" height="86.9318" fill="white"/>
</clipPath>
</defs>
</svg>
